<svg xmlns="http://www.w3.org/2000/svg" width="24" height="24" viewBox="0 0 24 24" fill="none" aria-hidden="true">
  <path d="M7 3.5H17" stroke="#f6c453" stroke-width="1.8" stroke-linecap="round"/>
  <path d="M7 20.5H17" stroke="#f6c453" stroke-width="1.8" stroke-linecap="round"/>
  <path d="M8 3.5V6.2C8 7.4 8.5 8.5 9.4 9.3L11.5 11.2C11.8 11.5 11.8 12 11.5 12.3L9.4 14.2C8.5 15 8 16.1 8 17.3V20.5" stroke="#f6c453" stroke-width="1.8" stroke-linecap="round" stroke-linejoin="round"/>
  <path d="M16 3.5V6.2C16 7.4 15.5 8.5 14.6 9.3L12.5 11.2C12.2 11.5 12.2 12 12.5 12.3L14.6 14.2C15.5 15 16 16.1 16 17.3V20.5" stroke="#f6c453" stroke-width="1.8" stroke-linecap="round" stroke-linejoin="round"/>
  <path d="M10.2 15.8H13.8" stroke="#f6c453" stroke-width="1.5" stroke-linecap="round" opacity=".7"/>
</svg>
